<?xml version="1.0" encoding="UTF-8" standalone="no"?><!DOCTYPE svg PUBLIC "-//W3C//DTD SVG 1.1//EN" "http://www.w3.org/Graphics/SVG/1.1/DTD/svg11.dtd"><svg width="100%" height="100%" viewBox="0 0 516 301" version="1.1" xmlns="http://www.w3.org/2000/svg" xmlns:xlink="http://www.w3.org/1999/xlink" xml:space="preserve" xmlns:serif="http://www.serif.com/" style="fill-rule:evenodd;clip-rule:evenodd;"><g id="Layer-1" serif:id="Layer 1"><path id="path2123" d="M3.672,280.946c6.976,14.09 20.09,15.811 35.752,12.501c8.824,-1.865 37.496,-3.781 57.553,4.067c20.056,7.848 44.437,-1.348 73.214,-3.092c28.776,-1.744 37.53,6.58 56.714,-3.012c19.184,-9.592 63.657,-12.208 39.241,-20.928c-24.417,-8.72 -109.873,-6.976 -142.137,-2.616c-32.264,4.36 -103.769,-16.568 -115.977,-11.336c-12.949,5.549 -6.976,12.208 -4.36,24.416Z" style="fill:url(#_Linear1);"/><path id="path7191" d="M79.295,164.137c-6.612,24.139 -11.808,80.447 -15.07,102.763c-0.798,-0.264 -1.662,-0.427 -2.551,-0.388c-4.076,0.18 -7.216,3.757 -7.03,7.974c0.186,4.217 3.628,7.473 7.704,7.293c2.82,-0.125 5.113,-1.915 6.251,-4.374c1.219,2.648 3.919,4.456 7.01,4.32c4.076,-0.18 7.252,-3.65 7.072,-7.726c-0.18,-4.077 -3.648,-7.221 -7.724,-7.041c-0.011,0 -0.021,0.001 -0.031,0.001c0.507,-3.635 10.597,-70.704 11.814,-77.442c1.255,-6.949 0.521,-54.457 -7.445,-25.38Z" style="fill:#8ed97d;stroke:#3e7e42;stroke-width:2.98px;"/><path id="path3572" d="M393.194,58.909c18.615,5.735 36.845,-6.017 47.557,0.738c10.712,6.755 20.062,16.419 36.914,14.875c16.668,-1.527 37.956,-9.558 37.956,-9.558c0,0 -20.923,-9.025 -29.949,-19.291c-9.026,-10.267 -13.31,-20.887 -29.152,-26.555c-21.515,-7.698 -40.377,-3.628 -49.291,-8.677c-11.238,9.781 -14.035,48.468 -14.035,48.468Z" style="fill:url(#_Linear2);fill-rule:nonzero;"/><path id="path3586" d="M413.228,19.021l-9.254,33.263l16.661,-1.933" style="fill:none;stroke:#fff;stroke-width:4.86px;stroke-linecap:round;stroke-linejoin:round;"/><path id="path3588" d="M434.786,20.739l-5.641,29.359" style="fill:none;stroke:#fff;stroke-width:4.86px;stroke-linecap:round;stroke-linejoin:round;"/><path id="path3590" d="M459.854,31.682c-3.508,-5.147 -16.642,-13.011 -17.996,-1.94c-1.354,11.07 20.082,8.37 14.78,21.671c-4.32,10.839 -18.213,-3.723 -18.213,-3.723" style="fill:none;stroke:#fff;stroke-width:4.86px;stroke-linecap:round;stroke-linejoin:round;"/><path id="path3592" d="M461.889,65.013l5.999,-27.933c0,-0 13.784,10.043 10.931,16.707c-3.877,9.057 -13.34,-3.503 -13.34,-3.503" style="fill:none;stroke:#fff;stroke-width:4.86px;stroke-linecap:round;stroke-linejoin:round;"/><path id="path1306" d="M207.047,87.645c-84.488,-0.306 -153.185,34.989 -162.426,63.686c-7.671,23.824 -18.247,91.413 -22.49,113.564c-0.786,-0.299 -1.642,-0.5 -2.531,-0.5c-4.08,-0 -7.375,3.435 -7.375,7.656c-0,4.221 3.295,7.625 7.375,7.625c2.822,0 5.192,-1.686 6.437,-4.094c1.102,2.7 3.719,4.625 6.813,4.625c4.08,0 7.406,-3.325 7.406,-7.406c0,-4.08 -3.326,-7.375 -7.406,-7.375c-0.011,0 -0.021,0 -0.031,0c0.667,-3.61 10.758,-60.595 15.325,-70.327c3,-6.393 127.225,-12.231 129.134,-6.362c2.756,8.478 -4.472,62.382 -6.116,83.943c-0.388,-0.052 -0.751,-0.169 -1.156,-0.156c-4.078,0.134 -7.264,3.688 -7.125,7.906c0.139,4.219 3.547,7.51 7.625,7.375c2.821,-0.093 5.116,-1.865 6.281,-4.312c1.19,2.662 3.877,4.508 6.969,4.406c4.078,-0.134 7.291,-3.578 7.156,-7.656c-0.134,-4.078 -3.546,-7.26 -7.625,-7.125c-0.349,0.011 -0.668,0.128 -1,0.187c1.165,-16.548 9.339,-82.751 13.665,-87.652c2.955,-3.349 27.684,-4.86 28.464,0.496c0.685,4.701 12.389,75.754 11.08,83.141c-7.937,-0.259 -13.674,9.198 -9.225,12.97c4.171,3.538 11.24,4.728 13.602,-2.692c4.698,7.999 12.04,4.442 14.536,0.579c2.147,-3.323 -0.144,-10.122 -9.913,-11.232c3.844,-16.682 -4.852,-90.938 -3.5,-92.928c1.561,-2.295 9.376,-15.317 10.157,-24.5c0.107,-1.268 0.094,-3.553 -0.063,-6.312c24.406,4.683 40.794,7.824 51.578,1.9c15.262,-8.384 18.137,-14.589 33.672,-24.807c19.347,-12.724 33.864,-5.097 43.135,-6.997c9.27,-1.9 4.981,-14.293 10.577,-23.758c6.075,-10.277 -21.482,-17.515 -27.805,-9.414c-7.868,10.082 -6.457,17.113 -13.546,19.575c-9.296,3.229 -29.482,15.558 -36.086,20.219c-11.188,7.895 -21.226,14.498 -41.244,6.875c-14.803,-7.384 -11.614,-23.911 -31.031,-32.125c-9.423,-4.843 -18.541,-8.665 -25.875,-9.937c-0.382,-0.086 -0.766,-0.143 -1.156,-0.219c-0.454,-0.063 -0.906,-0.116 -1.344,-0.156c-1.714,-0.277 -3.055,1.383 -4.918,1.314Z" style="fill:url(#_Linear3);stroke:#3e7e42;stroke-width:2.98px;"/><path id="rect2844" d="M403.892,5.614c2.241,0.334 3.793,2.198 2.659,6.234l-31.661,110.359c-1.134,4.037 -2.859,5.033 -5.1,4.699c-2.24,-0.333 -4.123,-1.867 -2.989,-5.903l31.661,-110.359c1.134,-4.037 3.19,-5.364 5.43,-5.03Z" style="fill:#e0773e;fill-rule:nonzero;stroke:#000;stroke-width:2.56px;"/><path id="path9395" d="M182.671,123.121c-5.122,17.73 8.865,23.246 8.865,23.246c-0,-0 5.515,3.546 9.849,4.728c4.334,1.182 21.818,6.205 23.246,-13.199c-6.649,-1.871 -41.96,-14.775 -41.96,-14.775Z" style="fill:#fff;"/><path id="path10849" d="M218.524,135.926l-3.743,16.548" style="fill:none;stroke:#000;stroke-width:1px;"/><path id="path10851" d="M212.417,134.35l-4.137,18.124" style="fill:none;stroke:#000;stroke-width:1px;"/><path id="path10853" d="M206.704,131.986l-4.137,18.715" style="fill:none;stroke:#000;stroke-width:1px;"/><path id="path10855" d="M201.188,130.016l-4.137,18.715l4.137,-18.715Z" style="fill:none;stroke:#000;stroke-width:1px;"/><path id="path10857" d="M195.475,128.046l-3.939,18.321" style="fill:none;stroke:#000;stroke-width:1px;"/><path id="path10859" d="M190.551,126.273l-3.743,15.957" style="fill:none;stroke:#000;stroke-width:1px;"/><path id="path10861" d="M186.02,124.106l-2.955,12.214" style="fill:none;stroke:#000;stroke-width:1px;"/><path id="path10863" d="M223.055,145.382c-12.608,-0.394 -33.095,-7.289 -41.566,-14.184" style="fill:none;stroke:#000;stroke-width:1px;"/><path id="path1334" d="M251.267,145.221c-27.446,-6.948 -68.231,-22.322 -68.231,-22.322c0,-0 -9.856,22.225 22.817,29.259c18.249,3.929 18.796,-13.89 18.796,-13.89" style="fill:none;stroke:#3e7e42;stroke-width:2.98px;"/><path id="path1319" d="M384.58,102.215c9.492,1.226 12.307,-9.451 9.032,-14.517c-2.984,-4.617 -13.237,-9.639 -15.845,-3.274c-1.956,4.772 3.212,7.482 7.526,7.038" style="fill:#9af286;stroke:#3e7e42;stroke-width:2.98px;stroke-linecap:round;"/><path id="path1317" d="M380.958,107.841c-3.872,-2.028 -9.268,-1.6 -6.845,-8.269c1.791,-4.93 7.691,-1.147 15.596,4.26c7.905,5.408 -0.293,12.101 -9.894,11.271" style="fill:#9af286;stroke:#3e7e42;stroke-width:2.98px;stroke-linecap:round;"/><path id="path1315" d="M356.104,92.797c3.244,-5.766 4.196,-11.586 7.711,-12.793c3.394,-1.166 11.518,-7.104 14.438,-5.535c2.92,1.569 5.251,7.175 -4.133,11.687c-4.475,2.151 -4.664,7.826 -8.301,10.076" style="fill:#9af286;stroke:#3e7e42;stroke-width:2.98px;stroke-linecap:round;"/><path id="path15231" d="M141.204,120.4c-0,0 19.712,-3.211 18.049,-14.464c-1.398,-9.458 -15.595,-7.349 -22.733,-5.552c0.453,5.736 1.218,8.889 -5.339,11.647c6.594,-0.135 8.105,1.827 10.023,8.369Z" style="fill:#54de61;"/><path id="path15959" d="M143.372,142.812c-0,-0 19.97,-0.298 19.968,-11.673c-0.002,-9.561 -14.355,-9.548 -21.678,-8.812c-0.39,5.74 -0.094,8.971 -6.983,10.742c6.543,0.829 7.752,2.991 8.693,9.743Z" style="fill:#54de61;"/><path id="path15961" d="M143.532,166.085c0,-0 19.933,1.252 20.813,-10.089c0.74,-9.532 -13.57,-10.632 -20.929,-10.467c-0.834,5.693 -0.789,8.937 -7.795,10.168c6.46,1.334 7.497,3.583 7.911,10.388Z" style="fill:#54de61;"/><path id="path15963" d="M142.871,168.541c-1.204,5.626 -1.365,8.887 -8.437,9.657c5.398,1.489 6.797,3.541 7.094,8.25c6.47,-0.097 12.373,-0.09 17.5,0.031c2.085,-1.344 3.626,-3.31 4.031,-6.125c1.362,-9.463 -12.834,-11.496 -20.188,-11.813Z" style="fill:#54de61;"/><path id="path15965" d="M132.559,96.854c-8.507,2.199 -16.605,4.722 -24.156,7.5c4.492,0.946 5.692,3.112 6.5,8.625c-0,-0 19.75,-0.57 19.75,-11.281c-0,-2.091 -0.829,-3.639 -2.094,-4.844Z" style="fill:#54de61;"/><path id="path15967" d="M119.086,133.605c-0,0 19.736,-0.506 19.764,-11.217c0.023,-9.003 -14.161,-8.828 -21.4,-8.053c-0.401,5.41 -0.116,8.449 -6.93,10.194c6.465,0.707 7.653,2.728 8.566,9.076Z" style="fill:#54de61;"/><path id="path15971" d="M120.935,155.801c0,-0 19.736,-0.506 19.764,-11.217c0.024,-9.003 -14.16,-8.829 -21.4,-8.053c-0.4,5.409 -0.115,8.449 -6.929,10.194c6.465,0.707 7.653,2.728 8.565,9.076Z" style="fill:#54de61;"/><path id="path15973" d="M121.073,176.886c-0,0 19.71,1.12 20.62,-9.553c0.764,-8.97 -13.387,-9.963 -20.665,-9.786c-0.844,5.358 -0.811,8.411 -7.745,9.59c6.385,1.236 7.403,3.348 7.79,9.749Z" style="fill:#54de61;"/><path id="path15975" d="M119.496,178.823c-0.644,4.091 -0.855,6.811 -3.968,8.406c8.452,-0.386 16.603,-0.646 24.343,-0.781c-1.584,-6.909 -13.75,-7.787 -20.375,-7.625Z" style="fill:#54de61;"/><path id="path15977" d="M96.512,127.066c0,-0 19.565,-2.643 18.431,-13.294c-0.952,-8.952 -14.339,-5.752 -21.452,-4.196c0.189,5.421 0.106,6.922 -6.478,9.396c6.503,0.002 7.904,1.883 9.499,8.094Z" style="fill:#54de61;"/><path id="path15979" d="M98.67,147.72c-0,0 19.565,-2.643 18.431,-13.294c-0.952,-8.952 -15.034,-7.241 -22.147,-5.685c0.189,5.421 0.801,8.412 -5.783,10.886c6.503,0.001 7.904,1.882 9.499,8.093Z" style="fill:#54de61;"/><path id="path15981" d="M98.266,167.365c-0,-0 19.742,0.033 20.062,-10.674c0.27,-8.999 -13.914,-9.211 -21.172,-8.634c-0.548,5.397 -0.346,8.443 -7.205,10.002c6.443,0.882 7.576,2.936 8.315,9.306Z" style="fill:#54de61;"/><path id="path15983" d="M97.378,187.646c0,0 19.705,1.227 20.672,-9.44c0.813,-8.966 -13.331,-10.037 -20.611,-9.899c-0.873,5.353 -0.857,8.406 -7.797,9.547c6.378,1.271 7.384,3.389 7.736,9.792Z" style="fill:#54de61;"/><path id="path15987" d="M77.564,141.209c-0,-0 18.225,-4.064 16.277,-14.076c-1.637,-8.416 -14.771,-5.671 -21.347,-3.629c0.625,5.126 1.449,7.914 -4.553,10.784c6.13,-0.516 7.606,1.157 9.623,6.921Z" style="fill:#54de61;"/><path id="path15989" d="M77.847,160.251c-0,0 18.534,-2.267 17.572,-12.421c-0.809,-8.535 -14.147,-7.085 -20.891,-5.694c0.122,5.163 0.67,8.018 -5.583,10.289c6.151,0.084 7.457,1.893 8.902,7.826Z" style="fill:#54de61;"/><path id="path15991" d="M77.17,178.719c0,0 18.65,-0.931 18.418,-11.129c-0.194,-8.57 -13.602,-8.081 -20.429,-7.178c-0.248,5.159 0.094,8.046 -6.307,9.863c6.13,0.525 7.303,2.423 8.318,8.444Z" style="fill:#54de61;"/><path id="path15995" d="M76.34,179.51c-0.741,5.111 -0.673,8.024 -7.219,9.219c1.917,0.352 3.207,0.837 4.25,1.469c6.826,-0.699 14.416,-1.3 22.594,-1.844c0.319,-8.289 -12.818,-9.086 -19.625,-8.844Z" style="fill:#54de61;"/><path id="path15997" d="M57.085,153.308c0,-0 18.016,-2.713 16.739,-12.185c-1.073,-7.962 -14.044,-6.18 -20.581,-4.663c0.291,4.828 0.922,7.482 -5.107,9.807c6.007,-0.117 7.342,1.534 8.949,7.041Z" style="fill:#54de61;"/><path id="path15999" d="M56.531,171.072c-0,-0 18.194,-0.951 17.842,-10.503c-0.295,-8.028 -13.378,-7.513 -20.031,-6.638c-0.179,4.833 0.191,7.536 -6.035,9.265c5.991,0.466 7.158,2.239 8.224,7.876Z" style="fill:#54de61;"/><path id="path16003" d="M56.839,189.568c0,0 18.194,-0.951 17.843,-10.502c-0.296,-8.029 -13.378,-7.514 -20.031,-6.639c-0.179,4.834 0.19,7.537 -6.035,9.266c5.99,0.466 7.158,2.239 8.223,7.875Z" style="fill:#54de61;"/><path id="path16013" d="M132.559,96.854c-8.507,2.199 -16.605,4.722 -24.156,7.5c4.492,0.946 5.692,3.112 6.5,8.625c-0,-0 19.75,-0.57 19.75,-11.281c-0,-2.091 -0.829,-3.639 -2.094,-4.844Z" style="fill:#54de61;"/><path id="path1387" d="M55.12,137.937c-11.336,19.184 -6.976,18.312 2.616,15.696c9.592,-2.616 78.481,-17.44 88.073,-14.824c9.592,2.616 23.544,-0.872 26.16,-11.336c2.616,-10.464 3.333,-15.92 14.807,-11.474c18.912,7.329 54.953,14.09 68.905,16.706c13.953,2.616 29.649,14.824 52.321,1.744c22.672,-13.08 41.075,-24.048 49.704,-30.52c1.744,-1.308 7.451,-14.155 9.33,-18.572c0.939,-2.208 8.884,-6.48 8.443,-7.603c-0.442,-1.124 -5.015,0.812 -9.714,3.925c-4.855,3.217 -7.965,18.551 -14.069,21.167c-6.104,2.616 -25.382,13.291 -33.23,19.395c-7.848,6.104 -28.776,18.312 -42.728,11.336c-13.952,-6.976 -19.185,-20.056 -30.521,-27.904c-11.336,-7.848 -60.168,-23.544 -118.592,-4.36c-58.425,19.184 -61.041,26.16 -71.505,36.624Z" style="fill:url(#_Linear4);"/><path id="path16018" d="M76.34,179.51c-0.741,5.111 -0.673,8.024 -7.219,9.219c1.917,0.352 3.207,0.837 4.25,1.469c6.826,-0.699 14.416,-1.3 22.594,-1.844c0.319,-8.289 -12.818,-9.086 -19.625,-8.844Z" style="fill:#54de61;"/><path id="path16023" d="M119.496,178.823c-0.644,4.091 -0.855,6.811 -3.968,8.406c8.452,-0.386 16.603,-0.646 24.343,-0.781c-1.584,-6.909 -13.75,-7.787 -20.375,-7.625Z" style="fill:#54de61;"/><path id="path16026" d="M214.465,86.706c-0.382,-0.086 -0.766,-0.143 -1.156,-0.219c-0.454,-0.063 -0.906,-0.116 -1.344,-0.156c-1.714,-0.277 -3.055,1.383 -4.918,1.314c-84.488,-0.306 -153.185,34.989 -162.426,63.686c-7.671,23.824 -18.247,91.413 -22.49,113.564c-0.786,-0.299 -1.642,-0.5 -2.531,-0.5c-4.08,-0 -7.375,3.435 -7.375,7.656c-0,4.221 3.295,7.625 7.375,7.625c2.822,0 5.192,-1.686 6.437,-4.094c1.102,2.7 3.719,4.625 6.813,4.625c4.08,0 7.406,-3.325 7.406,-7.406c0,-4.08 -3.326,-7.375 -7.406,-7.375c-0.011,0 -0.021,0 -0.031,0c0.667,-3.61 10.758,-60.595 15.325,-70.327c3,-6.393 127.225,-12.231 129.134,-6.362" style="fill:none;stroke:#3e7e42;stroke-width:2.98px;"/><path id="path7197" d="M200.897,67.701c-10.244,0.197 -16.154,8.864 -11.426,15.956c4.728,7.092 22.851,6.107 25.215,-1.182c2.364,-7.288 -7.682,-15.562 -13.789,-14.774Z" style="fill:#fff;stroke:#000;stroke-width:1.44px;"/><path id="path7933" d="M203.614,79.5c5.653,-1.141 4.418,-4.674 2.198,-7.446c-2.221,-2.771 -7.493,-1.138 -7.383,2.163c0.11,3.3 1.067,4.844 5.185,5.283Z"/><path id="path1323" d="M233.606,89.131c2.171,-10.6 -3.618,-15.143 -13.025,-15.9c-9.407,-0.757 -20.985,3.786 -16.643,11.357c4.342,7.572 23.156,18.172 29.668,4.543Z" style="fill:#fff;stroke:#000;stroke-width:1.44px;"/><path id="path7199" d="M178.923,74.536c-8.786,5.27 -9.597,15.73 -1.966,19.527c7.631,3.797 22.859,-6.08 21.281,-13.578c-1.579,-7.498 -14.411,-9.673 -19.315,-5.949Z" style="fill:#fff;stroke:#000;stroke-width:1.44px;"/><path id="path7935" d="M180.212,83.846c1.598,5.541 5.019,4.022 7.6,1.583c2.581,-2.439 0.523,-7.561 -2.758,-7.182c-3.28,0.379 -4.741,1.459 -4.842,5.599Z"/><path id="path1321" d="M208.211,86.183c-6.15,-5.679 -18.814,-9.086 -22.432,-2.272c-3.618,6.815 -1.447,20.444 11.578,19.687c13.025,-0.757 17.005,-11.736 10.854,-17.415Z" style="fill:#fff;stroke:#000;stroke-width:1.44px;"/><path id="path7195" d="M214.489,83.46c-7.682,0.591 -12.607,9.456 -6.894,13.396c5.712,3.94 17.532,3.94 18.517,-3.546c0.985,-7.486 -5.319,-10.047 -11.623,-9.85Z" style="fill:#fff;stroke:#000;stroke-width:1.44px;"/><path id="path7927" d="M198.73,85.627c-5.713,-0.788 -5.713,2.955 -4.531,6.304c1.182,3.349 6.698,3.546 7.683,0.394c0.985,-3.152 0.591,-4.925 -3.152,-6.698Z"/><path id="path7929" d="M219.93,86.874c-4.422,-0.566 -4.422,2.121 -3.508,4.526c0.915,2.404 5.185,2.545 5.947,0.282c0.763,-2.263 0.458,-3.535 -2.439,-4.808Z"/><path id="path7931" d="M223.545,76.966c-5.072,2.745 -2.857,5.763 0.078,7.763c2.934,2 7.497,-1.105 6.426,-4.229c-1.071,-3.123 -2.437,-4.319 -6.504,-3.534Z"/><path id="path3573" d="M93.858,2.027c82.732,-4.319 129.993,-0.824 188.212,2.055" style="fill:none;"/><path id="path7245" d="M235.701,149.23c8.548,3.419 4.274,28.208 -8.548,29.918c-12.822,1.709 -99.155,4.274 -114.541,5.128c-15.386,0.855 -56.415,5.984 -56.415,5.984c-0,-0 -5.984,-5.129 -6.838,-10.258c-0.855,-5.128 56.415,-14.531 76.93,-15.386c20.515,-0.854 58.497,-12.808 64.108,-10.257c18.806,8.548 40.175,-3.419 45.304,-5.129Z" style="fill:url(#_Linear5);"/><path id="path8715" d="M389.723,92.553c-2.974,0.11 -4.627,-0.331 -5.178,1.542c-0.55,1.873 1.432,5.398 2.644,5.728c1.212,0.331 4.847,-2.093 5.068,-3.745c0.22,-1.653 -0.772,-2.864 -2.534,-3.525Z" style="fill:#86d973;"/><path id="path8717" d="M388.291,105.551c-2.203,-1.321 -6.61,-1.872 -7.271,-0.991c-0.661,0.881 2.864,1.432 2.093,3.195c-0.771,1.762 -2.313,1.542 -2.864,2.313c-0.551,0.771 -1.542,2.093 -0.44,2.864c1.101,0.771 8.922,-0.661 9.583,-1.762c0.661,-1.102 2.754,-3.746 -1.101,-5.619Z" style="fill:#86d973;"/></g><defs><linearGradient id="_Linear1" x1="0" y1="0" x2="1" y2="0" gradientUnits="userSpaceOnUse" gradientTransform="matrix(220.096,0,0,220.096,17.4401,284.98)"><stop offset="0" style="stop-color:#000;stop-opacity:0"/><stop offset="0.5" style="stop-color:#616161;stop-opacity:0.17"/><stop offset="1" style="stop-color:#000;stop-opacity:0"/></linearGradient><linearGradient id="_Linear2" x1="0" y1="0" x2="1" y2="0" gradientUnits="userSpaceOnUse" gradientTransform="matrix(122.427,0,0,122.427,393.194,42.5636)"><stop offset="0" style="stop-color:#7a73de;stop-opacity:1"/><stop offset="0.5" style="stop-color:#a2c8e9;stop-opacity:0.98"/><stop offset="1" style="stop-color:#7a73de;stop-opacity:1"/></linearGradient><linearGradient id="_Linear3" x1="0" y1="0" x2="1" y2="0" gradientUnits="userSpaceOnUse" gradientTransform="matrix(-1.26295,-129.072,129.072,-1.26295,138.95,244.804)"><stop offset="0" style="stop-color:#8de17a;stop-opacity:1"/><stop offset="1" style="stop-color:#a3f590;stop-opacity:1"/></linearGradient><linearGradient id="_Linear4" x1="0" y1="0" x2="1" y2="0" gradientUnits="userSpaceOnUse" gradientTransform="matrix(-18.6766,59.2963,-59.2963,-18.6766,209.324,90.6581)"><stop offset="0" style="stop-color:#d2f1cb;stop-opacity:0.85"/><stop offset="1" style="stop-color:#cdf9c3;stop-opacity:0.36"/></linearGradient><linearGradient id="_Linear5" x1="0" y1="0" x2="1" y2="0" gradientUnits="userSpaceOnUse" gradientTransform="matrix(62.1404,-54.7059,54.7059,62.1404,146.458,223.169)"><stop offset="0" style="stop-color:#71bc60;stop-opacity:0.53"/><stop offset="1" style="stop-color:#77ce64;stop-opacity:0.22"/></linearGradient></defs></svg>